<mxfile host="app.diagrams.net" modified="2021-01-22T01:09:51.643Z" agent="5.0 (Windows)" etag="7S-8b4t52CHH62xNIh-P" version="14.2.6" type="github">
  <diagram id="C5RBs43oDa-KdzZeNtuy" name="Page-1">
    <mxGraphModel dx="1596" dy="923" grid="1" gridSize="10" guides="1" tooltips="1" connect="1" arrows="1" fold="1" page="1" pageScale="1" pageWidth="827" pageHeight="500" math="0" shadow="0">
      <root>
        <mxCell id="WIyWlLk6GJQsqaUBKTNV-0" />
        <mxCell id="WIyWlLk6GJQsqaUBKTNV-1" parent="WIyWlLk6GJQsqaUBKTNV-0" />
        <mxCell id="E2SfHCNPPS_84J6BYHeU-0" value="" style="rounded=1;whiteSpace=wrap;html=1;fontStyle=1;fillColor=#fff2cc;strokeColor=#d6b656;" vertex="1" parent="WIyWlLk6GJQsqaUBKTNV-1">
          <mxGeometry x="40" y="120" width="310" height="210" as="geometry" />
        </mxCell>
        <mxCell id="E2SfHCNPPS_84J6BYHeU-1" value="" style="ellipse;whiteSpace=wrap;html=1;aspect=fixed;fillColor=#e1d5e7;strokeColor=#9673a6;" vertex="1" parent="WIyWlLk6GJQsqaUBKTNV-1">
          <mxGeometry x="590" y="120" width="210" height="210" as="geometry" />
        </mxCell>
        <mxCell id="E2SfHCNPPS_84J6BYHeU-2" value="" style="endArrow=classic;html=1;exitX=0.992;exitY=0.097;exitDx=0;exitDy=0;exitPerimeter=0;entryX=0.205;entryY=0.097;entryDx=0;entryDy=0;entryPerimeter=0;" edge="1" parent="WIyWlLk6GJQsqaUBKTNV-1" source="E2SfHCNPPS_84J6BYHeU-0" target="E2SfHCNPPS_84J6BYHeU-1">
          <mxGeometry width="50" height="50" relative="1" as="geometry">
            <mxPoint x="350" y="143.5" as="sourcePoint" />
            <mxPoint x="640" y="140" as="targetPoint" />
          </mxGeometry>
        </mxCell>
        <mxCell id="E2SfHCNPPS_84J6BYHeU-3" value="&lt;div&gt;Register User or Organization&lt;/div&gt;&lt;div&gt;&lt;br&gt;&lt;/div&gt;" style="text;html=1;strokeColor=none;fillColor=none;align=center;verticalAlign=middle;whiteSpace=wrap;rounded=0;" vertex="1" parent="WIyWlLk6GJQsqaUBKTNV-1">
          <mxGeometry x="388" y="130" width="200" height="20" as="geometry" />
        </mxCell>
        <mxCell id="E2SfHCNPPS_84J6BYHeU-4" value="" style="endArrow=classic;html=1;exitX=0.992;exitY=0.097;exitDx=0;exitDy=0;exitPerimeter=0;entryX=0.205;entryY=0.097;entryDx=0;entryDy=0;entryPerimeter=0;" edge="1" parent="WIyWlLk6GJQsqaUBKTNV-1">
          <mxGeometry width="50" height="50" relative="1" as="geometry">
            <mxPoint x="347.52" y="140.37" as="sourcePoint" />
            <mxPoint x="633.0500000000002" y="140.37" as="targetPoint" />
          </mxGeometry>
        </mxCell>
        <mxCell id="E2SfHCNPPS_84J6BYHeU-5" value="&lt;div&gt;Display Organization and Events&lt;/div&gt;" style="text;html=1;strokeColor=none;fillColor=none;align=center;verticalAlign=middle;whiteSpace=wrap;rounded=0;" vertex="1" parent="WIyWlLk6GJQsqaUBKTNV-1">
          <mxGeometry x="377" y="207" width="200" height="20" as="geometry" />
        </mxCell>
        <mxCell id="E2SfHCNPPS_84J6BYHeU-6" value="" style="endArrow=classic;html=1;exitX=0.992;exitY=0.097;exitDx=0;exitDy=0;exitPerimeter=0;entryX=0.205;entryY=0.097;entryDx=0;entryDy=0;entryPerimeter=0;" edge="1" parent="WIyWlLk6GJQsqaUBKTNV-1">
          <mxGeometry width="50" height="50" relative="1" as="geometry">
            <mxPoint x="347.23" y="310.3699999999999" as="sourcePoint" />
            <mxPoint x="632.7600000000002" y="310.3699999999999" as="targetPoint" />
          </mxGeometry>
        </mxCell>
        <mxCell id="E2SfHCNPPS_84J6BYHeU-7" value="&lt;div&gt;Make a Booking/Event&lt;/div&gt;" style="text;html=1;strokeColor=none;fillColor=none;align=center;verticalAlign=middle;whiteSpace=wrap;rounded=0;" vertex="1" parent="WIyWlLk6GJQsqaUBKTNV-1">
          <mxGeometry x="380" y="300" width="200" as="geometry" />
        </mxCell>
        <mxCell id="E2SfHCNPPS_84J6BYHeU-9" value="" style="endArrow=classic;html=1;exitX=0.015;exitY=0.383;exitDx=0;exitDy=0;exitPerimeter=0;" edge="1" parent="WIyWlLk6GJQsqaUBKTNV-1">
          <mxGeometry width="50" height="50" relative="1" as="geometry">
            <mxPoint x="590.1500000000001" y="227.43000000000006" as="sourcePoint" />
            <mxPoint x="350" y="226" as="targetPoint" />
          </mxGeometry>
        </mxCell>
        <mxCell id="E2SfHCNPPS_84J6BYHeU-10" value="&lt;b&gt;&lt;font style=&quot;font-size: 36px&quot;&gt;User&lt;/font&gt;&lt;/b&gt;" style="text;html=1;strokeColor=none;fillColor=none;align=center;verticalAlign=middle;whiteSpace=wrap;rounded=0;" vertex="1" parent="WIyWlLk6GJQsqaUBKTNV-1">
          <mxGeometry x="122.5" y="177.5" width="145" height="95" as="geometry" />
        </mxCell>
        <mxCell id="E2SfHCNPPS_84J6BYHeU-11" value="&lt;font style=&quot;font-size: 24px&quot;&gt;&lt;b&gt;AppointmentNow&lt;/b&gt;&lt;/font&gt;" style="text;html=1;strokeColor=none;fillColor=none;align=center;verticalAlign=middle;whiteSpace=wrap;rounded=0;" vertex="1" parent="WIyWlLk6GJQsqaUBKTNV-1">
          <mxGeometry x="675" y="215" width="40" height="20" as="geometry" />
        </mxCell>
        <mxCell id="E2SfHCNPPS_84J6BYHeU-14" value="External Entity" style="rounded=1;whiteSpace=wrap;html=1;fontStyle=1;fillColor=#fff2cc;strokeColor=#d6b656;" vertex="1" parent="WIyWlLk6GJQsqaUBKTNV-1">
          <mxGeometry x="228" y="380" width="160" height="100" as="geometry" />
        </mxCell>
        <mxCell id="E2SfHCNPPS_84J6BYHeU-15" value="&lt;b&gt;Process&lt;/b&gt;" style="ellipse;whiteSpace=wrap;html=1;aspect=fixed;fillColor=#e1d5e7;strokeColor=#9673a6;" vertex="1" parent="WIyWlLk6GJQsqaUBKTNV-1">
          <mxGeometry x="490" y="380" width="100" height="100" as="geometry" />
        </mxCell>
      </root>
    </mxGraphModel>
  </diagram>
</mxfile>
